<svg width="215" height="215" viewBox="0 0 215 215" fill="none" xmlns="http://www.w3.org/2000/svg">
<path d="M189.847 60.1344C181.845 55.2099 171.953 61.1044 167.251 67.8735C162.469 74.7615 160.415 86.5791 168.429 92.0856C175.476 96.9285 186.109 95.2513 192.818 85.6504C199.919 75.4887 196.955 64.5085 189.847 60.1344ZM168.853 68.8108C172.92 63.0307 181.293 57.6144 188.402 61.4214C196.794 65.9165 194.069 77.3524 189.93 83.7241C185.487 89.6653 176.701 95.4866 169.472 90.4795C162.317 85.5231 164.586 74.8739 168.853 68.8108Z" fill="#3176B1"/>
<path d="M188.089 82.0485C191.313 76.9311 192.834 68.6003 186.693 64.8876C181.041 61.4706 174.104 65.5481 170.785 70.3422C167.399 75.2337 166.051 83.52 171.7 87.4045C178.18 91.8614 186.445 85.1993 188.089 82.0485ZM172.741 85.8089C167.948 82.4746 169.54 75.3323 172.387 71.2782C175.018 67.5306 180.691 63.7405 185.363 66.2499C191.069 69.3138 189.182 76.9247 186.397 81.2512C183.441 85.1739 177.556 89.159 172.741 85.8089Z" fill="#3176B1"/>
<path d="M183.849 69.3161C180.468 67.3145 176.405 70.1928 174.506 72.944C172.569 75.7491 171.339 80.7892 174.718 83.0888C177.927 85.2727 182.428 82.4759 184.281 79.5912C186.311 76.9047 187.441 71.4428 183.849 69.3161ZM175.882 81.5663C173.247 79.9453 174.722 75.8446 176.108 73.8801C177.371 72.0895 180.045 69.8303 182.445 70.689C185.803 71.8912 183.964 76.6662 182.68 78.6551C181.287 80.5104 178.339 83.077 175.882 81.5663Z" fill="#3176B1"/>
<path d="M180.961 74.0218C180.12 73.4335 178.735 73.9613 177.869 75.2018C177.003 76.441 176.983 77.9232 177.824 78.5116C178.666 79.1 180.051 78.572 180.917 77.3317C181.783 76.0913 181.803 74.6102 180.961 74.0218Z" fill="#3176B1"/>
<path d="M48.0011 68.3042C47.9566 69.5764 49.2743 73.6834 46.855 77.6654C44.9097 80.7738 41.5543 81.5849 41.6072 88.3349C41.4681 88.3038 41.3257 88.2903 41.1832 88.2946C41.2574 86.8952 41.2022 82.4764 41.2107 81.0728C42.8794 79.7699 43.8982 76.8586 42.8444 75.1613C42.6069 74.7764 42.1044 74.4351 41.5362 74.4594C39.6947 74.5846 39.5357 78.2336 39.4848 80.0869C38.6764 80.3714 37.7943 80.3666 36.9891 80.0731C36.8514 79.1932 36.4993 77.2562 36.1124 76.3837C35.5898 75.2037 34.7628 75.0065 34.0218 75.4984C33.7132 75.7741 33.7377 75.7348 33.5181 76.1112C32.9234 77.4152 33.5638 79.9416 35.4297 81.2084C35.9226 84.7749 35.9205 85.9368 36.5863 88.7992C36.3128 88.8342 36.0763 88.8661 35.8962 88.8947C35.6565 86.0217 34.1172 83.4836 31.8654 81.835C23.966 76.6932 26.7819 60.4515 38.1162 61.375C40.4199 61.5757 42.6034 62.4912 44.3616 63.9936C45.8161 65.2212 46.5009 66.2803 47.3512 67.4751C48.6997 69.3686 48.0955 66.5019 46.8381 64.6996C43.1943 59.1602 35.9607 57.8149 30.7999 61.2986C24.8927 65.0866 23.5367 75.6649 28.0976 81.0717C28.387 81.4046 28.6266 81.7821 28.9626 82.0757C30.0758 83.0479 30.1543 83.1295 30.3048 83.2228C32.4877 84.5692 33.7535 86.9451 33.8797 89.146C34.0747 91.3097 33.9104 94.4182 35.0724 96.2819C36.5587 98.8157 40.6658 98.1944 41.8669 97.4099C42.0398 97.2975 42.2242 97.2063 42.3801 97.0792C43.294 96.108 42.9101 96.5364 43.3936 95.6596C44.6764 92.3455 42.6324 87.7741 44.4039 83.9829C45.4249 81.799 47.9767 80.247 48.9987 77.4248C51.0363 71.7984 48.0881 66.9566 48.0011 68.3042ZM37.2361 81.9422C37.991 82.0672 38.7225 82.0725 39.4838 81.8997C39.5453 84.672 39.8134 86.6493 40.2152 88.3922C39.5102 88.4664 38.4839 88.5756 37.5722 88.6816C37.6285 87.35 37.5531 84.6233 37.2361 81.9422ZM36.0128 90.8136C36.2852 90.8485 36.0605 90.8539 40.8502 90.3789C40.8863 90.3757 41.339 90.3206 41.6793 90.2358C41.6868 90.3492 41.7439 91.2779 41.7641 91.6426C41.5922 91.6054 41.4155 91.5954 41.2404 91.6129C41.0676 91.6299 37.3401 92.0105 36.0986 92.2024C36.0638 91.7402 36.0359 91.2766 36.0128 90.8136ZM40.7188 95.7263C40.6244 95.8133 40.4315 95.8123 40.2937 95.8664C39.5717 96.0614 39.0915 96.0497 38.66 96.0582C37.3517 96.0052 36.7559 95.6087 36.3785 94.1361C36.4855 94.1361 41.0878 93.7195 41.7769 93.5616C41.709 94.4139 41.515 95.4168 40.7188 95.7263Z" fill="#3176B1"/>
<path d="M20.5031 167.319C20.3334 167.109 20.1087 166.819 20.0048 166.418C19.7652 165.497 20.2148 164.478 21.1179 164.246C21.3077 164.209 21.629 164.177 21.9216 164.147C39.9327 162.328 71.515 157.421 78.9044 156.485C79.4462 156.416 78.9711 156.334 103.903 165.875C103.958 165.909 104.023 165.928 104.075 165.962C104.795 166.433 104.613 167.588 103.977 167.841C103.852 167.923 103.271 168.014 102.799 168.105C46.1315 178.944 46.4718 178.805 46.0573 178.611C41.9598 176.69 17.8431 165.312 20.9791 167.86C23.04 169.535 36.36 175.817 45.1264 180.323C45.417 180.473 45.8951 180.631 46.3032 180.651C46.9065 180.68 46.651 181.922 104.163 169.904C105.808 169.56 106.619 168.077 106.566 166.716C106.523 165.596 105.779 164.426 104.695 164.009C79.2479 154.238 79.954 154.414 79.1525 154.423C76.8932 154.452 25.5633 162.345 21.2908 163.049C19.4355 163.354 18.7241 165.228 19.2881 166.512C19.6231 167.275 20.2147 167.607 20.4957 167.649C20.7861 167.712 20.784 167.599 20.5031 167.319Z" fill="#191919"/>
<path d="M92.0331 165.6C89.1993 164.418 51.9844 173.016 48.8282 173.051C47.6513 173.059 46.4863 172.816 45.4102 172.339C44.2578 171.839 35.0482 167.938 34.4333 167.701C33.212 167.232 29.8926 166.024 28.877 165.862C28.3734 165.781 28.0341 165.854 28.2302 166.158C29.2692 167.756 43.0747 173.496 44.7445 174.227C46.4884 174.993 48.8293 175.28 51.0663 174.8C63.7277 172.08 94.8139 166.76 92.0331 165.6Z" fill="#191919"/>
<path d="M77.4692 138.938C76.8896 139.425 76.3029 139.903 75.7094 140.373C77.306 147.546 77.236 147.469 77.1279 148.048C76.8979 149.267 75.9278 150.32 74.3979 150.516L16.6052 157.94C15.6977 157.894 14.7329 157.382 14.1508 156.446C13.801 155.884 13.7364 155.319 13.6134 154.442C13.501 153.645 7.77931 117.475 7.55133 116.463C7.19724 114.886 6.86644 114.001 6.8071 115.003C6.58025 118.884 11.7146 155.452 11.9171 156.213C12.3825 157.962 13.8615 159.404 15.7168 159.809C17.0918 160.109 15.774 160.11 75.1708 152.437C77.9537 151.855 79.6204 149.096 79.1433 146.667C78.9546 145.705 78.3142 142.757 77.4692 138.938Z" fill="#191919"/>
<path d="M6.96753 114.177C7.18388 112.499 8.25035 111.02 9.9403 110.615C10.5265 110.475 9.94236 110.551 66.3273 108.782C67.7056 108.841 68.8739 109.816 69.1791 111.161L70.1428 115.486C70.7217 114.921 71.2911 114.346 71.8508 113.763C71.0895 110.368 71.063 109.891 70.3654 108.905C69.4633 107.631 68.0458 106.865 66.6612 106.762C65.7749 106.697 65.511 106.745 10.1968 109.396C9.85067 109.463 9.51245 109.566 9.18753 109.702C7.08734 110.598 6.14172 113.015 6.69401 114.396C6.81918 114.706 6.90613 114.656 6.96753 114.177Z" fill="#191919"/>
<path d="M66.1774 114.989C65.6674 113.376 64.2288 112.263 62.541 112.061C61.9241 111.986 62.1467 111.806 16.7928 114.079C16.3379 114.101 15.6945 114.171 15.1749 114.374C13.2921 115.107 12.5299 117.082 13.0292 118.125C13.149 118.375 13.237 118.325 13.3048 117.947C13.5646 116.492 14.6078 115.546 15.8057 115.343C16.1822 115.279 16.3931 115.294 17.344 115.294C33.0822 115.294 46.065 114.609 61.9421 114.071C62.6747 114.046 63.458 114.38 63.9171 114.989C64.1334 115.276 64.1567 115.26 65.2646 119.887L67.069 118.7L66.1774 114.989Z" fill="#3176B1"/>
<path d="M72.7864 142.643L70.822 143.603C70.7382 144.69 69.837 145.403 68.7567 145.534C68.7567 145.534 21.644 151.231 21.4278 151.236C20.4514 151.258 19.5068 150.716 19.1304 149.81C18.8017 149.017 13.5878 113.901 13.1299 118.613C12.8193 121.817 16.5033 146.265 17.0557 149.658C17.4426 152.038 19.6817 153.512 22.1402 153.163C24.9719 152.761 69.1871 147.526 69.4299 147.477C71.7962 146.989 73.2709 144.756 72.7864 142.643Z" fill="#3176B1"/>
<path d="M41.325 112.124C42.0342 112.124 42.4775 111.356 42.1229 110.742C41.9583 110.457 41.6542 110.281 41.325 110.281C40.6158 110.281 40.1725 111.049 40.5271 111.663C40.6918 111.948 40.9959 112.124 41.325 112.124Z" fill="#191919"/>
<path d="M103.592 97.3529C103.292 96.6712 102.747 96.6712 102.233 96.5101L86.1543 92.2015C84.9913 91.9513 84.7474 92.986 84.1082 94.377C79.9205 103.511 72.3245 113.187 63.1233 120.185C53.7196 127.354 42.7872 131.864 30.3292 133.399C29.9899 133.482 28.3636 133.594 25.9815 133.81C22.1839 134.087 17.5107 133.901 16.5841 133.901C15.754 133.901 15.2558 134.449 15.2886 135.278C15.3522 135.861 16.9043 149.342 16.9043 149.342C17.445 151.407 19.2526 152.961 21.7376 152.735C66.4872 148.669 65.4991 147.897 66.3833 147.596C74.9346 143.3 84.5471 135.416 92.1273 124.296C95.2177 119.763 93.9296 121.676 96.1527 117.745C97.6146 115.159 96.969 116.346 97.9158 114.328C100.551 108.705 99.3343 111.4 100.887 107.238C102.156 103.839 101.667 105.658 103.4 98.9643C103.522 98.4947 103.825 97.7303 103.592 97.3529ZM97.8829 109.621C94.8646 116.205 95.6427 114.537 94.3472 116.883C93.7291 118.002 91.999 121.194 89.5001 124.603C82.5168 134.132 72.7177 142.322 65.622 145.965C64.3753 146.605 21.6082 150.962 21.4969 150.973C20.1844 151.093 18.9366 150.137 18.7214 148.8L17.3941 135.943C21.3909 136.031 20.7548 136.044 22.9165 135.97C23.9417 135.922 25.0941 135.939 26.3546 135.824C49.6612 134.327 68.7665 122.392 81.0687 103.831C99.2748 109.953 97.9486 109.442 97.8829 109.621ZM101.462 98.4385C99.8685 104.293 100.222 103.163 98.5614 107.758L82.1034 102.224C83.6945 99.7026 85.11 97.0742 86.3398 94.3579L86.3547 94.3494C102.309 98.6166 101.503 98.3325 101.462 98.4385Z" fill="#3176B1"/>
<path d="M88.017 97.4726C87.2569 97.127 86.3229 97.5469 85.9285 98.4108C85.5362 99.2738 85.8352 100.254 86.5942 100.6C87.3544 100.946 88.2884 100.526 88.6818 99.6619C89.074 98.7989 88.7771 97.8172 88.017 97.4726Z" fill="#3176B1"/>
<path d="M95.5673 88.2936C96.1367 87.7073 95.4581 84.8014 92.0221 83.156C89.7088 82.0503 88.6476 82.6016 88.126 81.8626C87.1366 80.4828 85.9088 79.2909 84.5003 78.3429C83.3118 77.5584 82.3662 77.1682 82.1679 77.1046C81.4067 76.8607 79.8727 76.6296 80.0073 77.4131C80.2034 78.5475 84.2087 79.6171 86.5411 83.1231C88.0063 85.0548 90.0662 83.6172 92.8343 86.133C94.153 87.3309 94.9842 88.8937 95.5673 88.2936Z" fill="#3176B1"/>
<path d="M102.988 95.3277C104.511 94.4096 104.666 82.1817 99.9028 75.1156C99.044 73.6781 97.3413 73.8827 95.7034 74.2251C93.5385 74.6789 92.172 75.3839 91.8826 75.5079C91.0991 75.9097 88.823 77.2827 89.6562 77.7015C90.1746 77.9622 91.1712 77.537 94.9931 76.4473C95.3355 76.3804 96.0745 75.9967 97.8831 75.9786C98.1058 75.9765 98.163 76.1123 98.3485 76.4059C102.989 83.7305 101.611 93.2858 102.474 95.0722C102.587 95.3055 102.78 95.4538 102.988 95.3277Z" fill="#3176B1"/>
<path d="M87.2238 73.277C86.4383 72.0642 82.1668 67.5331 81.6749 67.2171C81.1533 66.8821 80.5045 66.6468 80.1886 67.18C80.0796 67.3661 80.0553 67.5898 80.1218 67.7949C80.2946 68.3727 80.585 68.853 80.9657 69.2495C85.4226 73.8929 85.641 74.8387 86.5739 75.444C87.9416 76.3313 88.3158 74.7199 87.2238 73.277Z" fill="#3176B1"/>
<path d="M90.7962 71.1202C89.7985 69.0486 86.4706 64.07 86.1261 63.7382C85.9024 63.5214 85.6436 63.344 85.3607 63.2134C84.8624 62.9855 84.3928 63.4286 84.4691 63.9905C84.5484 64.5884 84.7635 65.1604 85.0978 65.6624C89.0829 71.6969 88.9801 72.4178 89.824 73.2235C91.0421 74.3844 91.6718 72.9373 90.7962 71.1202Z" fill="#3176B1"/>
<path d="M94.4649 69.4062C93.9031 68.0703 90.502 62.8607 90.0706 62.4621C89.8552 62.2593 89.6052 62.0967 89.3326 61.9818C88.8513 61.7794 88.3786 62.2204 88.44 62.7558C88.5079 63.3558 88.7093 63.8795 89.0124 64.3354C92.7337 69.9182 92.599 70.6328 93.4418 71.4216C94.6314 72.5337 95.2855 71.0188 94.4649 69.4062Z" fill="#3176B1"/>
<path d="M98.8766 70.1702C98.3698 68.9616 95.4586 64.5609 95.1236 64.2736C94.9282 64.1044 94.7011 63.9757 94.4557 63.8951C94.0126 63.7466 93.5323 64.176 93.5513 64.6531C93.5726 65.1863 93.7274 65.6412 93.9849 66.0271C97.0584 70.6335 97.0351 71.4063 97.7634 71.9958C98.8638 72.8895 99.5879 71.5696 98.8766 70.1702Z" fill="#3176B1"/>
<path d="M194.742 167.534C196.453 166.799 196.3 163.858 194.306 163.212C192.556 162.644 172.641 159.61 166.112 158.684C134.805 154.239 135.997 154.191 134.739 154.695C130.377 156.445 110.494 163.927 109.957 164.263C107.947 165.527 108.139 168.668 110.258 169.653C110.684 169.88 110.408 169.026 168.012 180.531C168.659 180.661 169.319 180.57 169.837 180.324C201.601 165.284 203.893 162.152 169.111 178.514C168.946 178.592 168.756 178.675 168.477 178.627L111.089 167.807C110.415 167.456 110.356 166.234 111.195 165.898L135.739 156.499C135.995 156.433 194.321 164.379 194.207 164.363C194.883 164.645 195.216 165.575 195.057 166.27C194.932 166.814 194.614 167.183 194.443 167.368C194.282 167.568 194.306 167.673 194.742 167.534Z" fill="#191919"/>
<path d="M123.906 165.845C124.846 166.823 133.631 168.662 134.962 168.921C135.771 169.079 164.215 174.641 164.955 174.736C166.33 174.915 167.726 174.799 169.052 174.396C170.516 173.946 186.901 167.011 184.696 166.551C183.366 166.273 175.092 169.707 173.831 170.249C169.138 172.265 169.115 172.305 168.381 172.51C167.215 172.835 165.991 172.894 164.799 172.682C147.338 169.439 121.974 163.834 123.906 165.845Z" fill="#191919"/>
<path d="M144.826 116.065C145.535 112.925 146.018 110.82 146.069 110.694C146.501 109.638 147.482 108.907 148.618 108.796L204.722 110.569C206.132 110.769 207.159 111.676 207.655 112.788C207.953 113.456 208.019 114.061 208.078 114.361C208.257 115.281 209.121 112.822 207.447 110.879C206.912 110.27 206.222 109.817 205.451 109.567C204.557 109.277 205.394 109.399 148.688 106.744C146.388 106.842 144.439 108.47 143.933 110.715L143.116 114.392C143.677 114.959 144.247 115.517 144.826 116.065Z" fill="#191919"/>
<path d="M208.037 114.968C206.524 119.165 201.482 154.649 201.213 155.667C201.005 156.451 200.282 157.52 198.941 157.816C198.12 157.997 198.913 157.999 140.346 150.44C138.72 150.1 137.676 148.451 137.974 146.992C138.067 146.535 138.563 144.266 139.267 141.066C138.674 140.61 138.088 140.145 137.509 139.67L136.035 146.315C135.359 149.295 137.401 152.137 140.445 152.509C198.616 159.628 197.868 159.909 198.621 159.864C200.146 159.775 201.707 158.909 202.592 157.435C203.211 156.406 203.248 155.576 203.377 154.717C203.497 153.921 208.267 117.613 208.336 116.579C208.443 114.966 208.377 114.024 208.037 114.968Z" fill="#191919"/>
<path d="M201.225 115.282C200.76 114.812 200.181 114.469 199.545 114.288C196.803 113.523 157.075 112.153 153.198 112.035C151.848 111.994 150.432 112.607 149.557 113.764C149.145 114.311 149.184 114.28 148.116 118.866L149.722 120.411L150.872 115.597C151.16 114.705 152.024 114.027 153.334 114.078C155.843 114.175 198.977 115.28 199.555 115.444C200.318 115.672 200.959 116.191 201.341 116.89C201.605 117.387 201.679 117.856 201.743 118.094C201.947 118.858 202.708 116.796 201.225 115.282Z" fill="#3176B1"/>
<path d="M201.713 118.572C200.552 121.278 197.843 138.768 196.023 149.343C195.825 150.492 194.754 151.347 193.201 151.133C188.515 150.485 146.149 145.56 145.702 145.364C145.109 145.155 144.634 144.7 144.399 144.116L142.298 142.823C141.97 145.135 143.638 147.245 146.102 147.528C146.102 147.528 193.147 153.146 193.632 153.16C195.473 153.21 197.174 152.051 197.746 150.51C198.35 148.881 201.858 123.093 202.043 119.879C202.118 118.589 202.032 117.826 201.713 118.572Z" fill="#3176B1"/>
<path d="M173.772 110.283C173.063 110.283 172.62 111.051 172.974 111.665C173.139 111.95 173.443 112.126 173.772 112.126C174.481 112.126 174.925 111.358 174.57 110.744C174.406 110.459 174.101 110.283 173.772 110.283Z" fill="#191919"/>
<path d="M118.761 88.3883C119.316 88.3671 119.469 87.8307 121.294 86.127C121.381 86.0635 121.927 85.4898 122.944 84.9947C124.245 84.3629 125.295 84.3396 125.68 84.2621C127.817 83.8297 127.575 82.0942 130.677 79.9367C132.088 78.955 132.538 78.9645 133.783 77.9542C134.393 77.4612 134.117 76.8623 133.199 76.911C132.157 76.9635 131.146 77.2837 130.264 77.8408C128.791 78.7833 127.418 79.7904 125.925 81.8822C125.479 82.5055 124.934 82.0868 122.943 82.7875C120.69 83.5816 118.46 85.5121 118.31 87.6876C118.302 87.8116 118.296 87.9378 118.331 88.0587C118.385 88.2474 118.538 88.3958 118.761 88.3883Z" fill="#3176B1"/>
<path d="M111.359 95.3105C112.651 94.2886 111.067 83.5205 115.824 76.2138C116.039 75.8831 116.106 75.9371 116.526 75.9446C118.927 75.9869 120.721 77.0874 123.609 77.7638C126.716 78.4921 121.993 73.9895 116.177 73.9355C115.602 73.944 115.05 74.1581 114.62 74.5387C113.898 75.178 112.788 77.4733 112.248 78.8663C109.102 86.9851 110.092 96.3134 111.359 95.3105Z" fill="#3176B1"/>
<path d="M126.642 75.6406C126.848 75.6983 127.068 75.6711 127.253 75.5654C128.445 74.9102 128.222 74.625 130.987 71.5113C133.569 68.6032 133.827 68.5958 134.022 67.6735C134.127 67.1773 133.633 66.7691 133.098 66.9367C132.545 67.1082 132.046 67.4176 131.646 67.8356C130.627 68.8958 126.9 72.8142 126.363 74.1648C126.123 74.7733 126.014 75.4656 126.642 75.6406Z" fill="#3176B1"/>
<path d="M124.021 73.4047C125.122 72.4718 124.852 72.2353 127.178 68.4431C129.424 64.7824 129.605 64.8089 129.658 63.8547C129.682 63.5766 129.51 63.3189 129.244 63.2335C128.602 63.0056 127.663 63.9682 127.286 64.5364C126.418 65.8478 123.258 70.6461 122.925 72.1367C122.564 73.7482 123.541 73.8118 124.021 73.4047Z" fill="#3176B1"/>
<path d="M119.825 71.7699C120.037 71.7907 120.249 71.7254 120.413 71.5886C121.471 70.7341 121.206 70.4849 123.374 66.9398C125.4 63.6278 125.656 63.5599 125.685 62.627C125.695 62.3533 125.525 62.1053 125.266 62.0164C124.642 61.78 123.746 62.6503 123.376 63.2037C122.563 64.425 119.581 68.9488 119.293 70.3673C119.163 71.0034 119.179 71.7094 119.825 71.7699Z" fill="#3176B1"/>
<path d="M116.106 72.1251C117.058 71.4711 116.829 71.2346 118.661 68.2281C120.447 65.2967 120.6 65.3433 120.563 64.5387C120.543 64.0902 119.994 63.7605 119.535 63.9598C119.075 64.1539 118.682 64.4781 118.404 64.8928C117.732 65.9021 115.144 69.8035 114.945 70.9982C114.892 71.3163 114.9 71.7987 115.069 72.0097C115.274 72.263 115.761 72.3616 116.106 72.1251Z" fill="#3176B1"/>
<path d="M198.852 135.455C198.787 135.31 198.664 135.2 198.512 135.153C195.84 134.427 173.284 136.55 151.987 120.759C150.469 119.615 148.677 118.273 146.872 116.535C138.607 108.585 137.906 107.702 136.294 102.76C135.761 101.14 135.227 99.3784 134.281 97.6778C132.972 95.4282 130.323 92.1257 127.857 92.289C127.38 92.3209 127.878 92.3844 115.8 95.4516C114.162 95.8671 110.902 95.7197 110.029 98.526C108.721 102.531 109.567 107.25 111.847 110.792C114.623 115.091 116.192 114.691 116.927 116.08C119.096 119.464 123.746 128.806 134.381 138.326C141.01 144.225 147.652 147.911 148.167 147.916C193.8 152.875 192.73 152.891 193.885 152.58C195.517 152.165 196.859 150.784 197.107 148.822C197.733 143.872 199.158 136.098 198.852 135.455ZM127.876 94.3098C128.327 94.2249 128.891 94.5631 129.261 94.8314C133.501 97.89 133.861 102.906 135.697 106.839C134.52 107.315 133.613 107.836 132.8 108.234C132.746 107.582 132.601 106.94 132.369 106.329C131.02 102.661 128.618 97.4223 125.626 94.9087C125.686 94.8929 127.822 94.315 127.876 94.3098ZM123.798 95.3995C124.241 96.0611 124.686 96.7036 125.223 97.2888C127.168 99.3975 129.093 103.402 130.099 106.077C130.125 106.185 130.9 108.217 131.332 108.926C130.465 109.32 129.409 109.77 128.291 110.19C127.624 108.163 126.077 106.928 123.764 102.544C121.892 99.1123 121.407 97.1955 120.75 96.218L123.798 95.3995ZM116.306 97.4055C116.536 97.3514 116.339 97.4033 119.289 96.6103C119.342 97.3874 119.527 98.1465 119.819 98.86C120.719 101.432 124.769 109.13 126.949 110.681C125.612 111.156 124.263 111.599 122.905 112.009C122.428 111.263 121.544 110.427 121 109.823C120.856 109.66 118.816 107.414 117.714 104.622C116.535 101.866 116.374 98.7582 116.305 98.4158C116.273 98.2515 116.312 97.7447 116.306 97.4055ZM195.42 149.323C194.996 150.367 193.977 151.046 192.85 151.035L148.604 145.914C147.109 145.146 145.558 144.251 143.493 142.841C134.356 136.777 127.073 128.619 121.236 119.336C119.376 116.334 119.446 116.195 118.335 114.533C117.457 113.42 116.24 112.986 115.428 112.125C111.791 108.408 110.691 103.066 111.903 99.3211C112.062 98.7995 112.201 98.5684 112.547 98.3288C113.027 97.9832 113.798 97.8369 114.669 97.698C114.471 98.5015 114.422 99.3343 114.524 100.155C115.057 103.987 116.021 106.777 118.759 110.339C119.236 110.882 120.22 112.06 121.111 112.579C120.727 112.744 120.361 112.948 120.018 113.186C119.632 113.452 119.615 113.757 119.758 113.959C120.971 115.643 131.624 111.047 133.485 110.179C134.015 109.932 135.621 108.962 136.547 108.378C138.391 111.29 142.291 114.846 144.463 116.975C145.958 118.481 147.539 119.81 149.1 121.045C159.766 129.49 172.124 134.194 184.24 135.452C186.962 135.731 196.089 136.09 197.948 136.106C197.233 139.814 195.683 148.681 195.42 149.323Z" fill="#3176B1"/>
<path d="M162.643 57.1781C162.202 57.9679 163.721 60.0575 164.811 63.7151C164.824 63.7437 164.828 63.7532 164.81 63.7522C159.523 62.2128 159.218 62.0474 158.038 62.1598C157.585 62.2033 157.422 62.4545 157.443 62.7048C157.509 63.4628 159.524 64.2663 160.253 64.4868L165.45 66.058C166.201 66.2626 166.928 65.7908 167.028 65.2863C167.267 64.7731 166.884 63.6228 166.729 63.0248C166.362 61.6064 165.424 59.0959 164.48 58.0007C163.975 57.4156 163.02 56.5028 162.643 57.1781Z" fill="#3176B1"/>
<path d="M163.02 61.4048C162.936 60.3308 158.689 57.0772 157.703 56.3595C153.945 53.6243 147.589 49.6815 142.131 47.0035C138.806 39.7096 138.795 39.5188 137.855 38.5445C137.492 38.167 137.193 38.2179 137.032 38.4024C136.511 38.994 137.385 41.3677 137.71 42.0917L139.326 45.6867C138.789 45.4457 138.25 45.2099 137.708 44.9796C134.521 37.9879 134.367 37.4344 133.384 36.4135C133.021 36.0372 132.722 36.0859 132.559 36.2704C132.038 36.862 132.912 39.2357 133.237 39.9598L135.004 43.8897C134.477 43.6902 133.947 43.4979 133.415 43.313C130.154 36.1591 130.004 35.6078 129.017 34.5826C128.66 34.2115 128.358 34.254 128.192 34.4406C127.672 35.0321 128.545 37.4058 128.871 38.1299L130.877 42.5942C130.375 42.4914 128.947 42.256 128.41 42.3472C128.085 42.3981 127.875 42.5666 128.016 42.7988C128.264 43.224 129.321 43.6364 129.897 43.8909C128.741 44.2884 124.292 45.6698 123.668 46.696C123.45 47.0565 123.673 47.506 124.521 47.4699C126.575 47.3787 127.9 46.7385 132.688 45.0761C133.213 45.2913 133.74 45.5055 134.269 45.7164C132.967 46.166 128.656 47.4996 128.034 48.5259C127.818 48.8832 128.034 49.3358 128.886 49.2998C130.945 49.2086 132.325 48.5471 137.103 46.889C137.676 47.1402 138.322 47.4296 139.019 47.752C137.627 48.2322 133.13 49.6242 132.506 50.6579C132.289 51.0184 132.508 51.4678 133.358 51.4318C134.353 51.3831 135.336 51.1906 136.276 50.8603L141.623 49.003C152.554 54.4533 160.199 61.0624 162.464 61.6443C162.778 61.726 163.041 61.673 163.02 61.4048Z" fill="#3176B1"/>
</svg>
